# xmcd
#
# Track frame offsets:
#	151
#	17541
#	31056
#	43765
#	63312
#	79623
#	91736
#	112923
#	124062
#	137805
#
# Disc length: 2051 seconds
#
# Revision: 0
# Processed by: cddbd v1.5.2PL0 Copyright (c) Steve Scherf et al.
# Submitted via: EasyCDDAExtractor 11.0.3.1
#
DISCID=7108010a
DTITLE=Luke Wallin - Back To Mississippi
DYEAR=1900
DGENRE=Blues
TTITLE0=Back to Mississippi
TTITLE1=Cheaper Every Day
TTITLE2=Red Dog Moon
TTITLE3=100 Miles Before Midnight
TTITLE4=Livin' In The Recent Past
TTITLE5=Another Wasted Love
TTITLE6=Easy For A Baptist
TTITLE7=No Whiskey
TTITLE8=Mississippi Christmas
TTITLE9=Water Base Love
EXTD=
EXTT0=
EXTT1=
EXTT2=
EXTT3=
EXTT4=
EXTT5=
EXTT6=
EXTT7=
EXTT8=
EXTT9=
PLAYORDER=
